####
#
# OBJ File Generated by Meshlab
#
####
# Object 3469136.obj
#
# Vertices: 198
# Faces: 396
#
####
vn 3.012044 1.033330 -2.989593
v 1181.949219 1797.788086 81.835625
vn 3.086341 0.406700 3.063442
v 1182.192139 1796.700684 82.981194
vn 3.086345 0.719420 -3.005394
v 1182.192139 1796.762451 81.782784
vn 3.127989 0.086630 3.047121
v 1182.328003 1795.655640 82.927345
vn 3.127975 0.399345 -3.022073
v 1182.328003 1795.717407 81.728935
vn 3.136425 -0.235807 3.030453
v 1182.355591 1794.602051 82.873062
vn 3.136411 0.076872 -3.038644
v 1182.355591 1794.663818 81.674652
vn 3.111584 -0.557545 3.013844
v 1182.274536 1793.551147 82.818924
vn 3.111614 -0.244853 -3.055201
v 1182.274536 1793.612915 81.620514
vn 3.053877 -0.874752 2.997711
v 1182.085693 1792.514282 82.765495
vn 3.053852 -0.562027 -3.071765
v 1182.085693 1792.576050 81.567085
vn 2.963706 -1.184441 2.981434
v 1181.791260 1791.502197 82.713356
vn 2.963711 -0.871774 -3.087414
v 1181.791260 1791.563965 81.514946
vn 2.842135 -1.483402 2.966274
v 1181.394043 1790.525757 82.663048
vn 2.842156 -1.170684 -3.103070
v 1181.394043 1790.587524 81.464638
vn 2.690484 -1.768136 2.951430
v 1180.898560 1789.595337 82.615105
vn 2.690472 -1.455431 -3.117577
v 1180.898560 1789.657104 81.416695
vn 2.510147 -2.036007 2.937624
v 1180.309814 1788.720703 82.570045
vn 2.510169 -1.723322 -3.131384
v 1180.309814 1788.782471 81.371635
vn 2.303284 -2.283881 2.924914
v 1179.634033 1787.911133 82.528328
vn 2.303273 -1.971164 -3.144225
v 1179.634033 1787.972900 81.329918
vn 2.072144 -2.508989 2.913409
v 1178.878540 1787.175293 82.490425
vn 2.072150 -2.196303 -3.155924
v 1178.878540 1787.237061 81.292007
vn 1.819009 -2.709247 2.902946
v 1178.051392 1786.520874 82.456703
vn 1.819026 -2.396557 -3.166105
v 1178.051392 1786.582642 81.258293
vn 1.546395 -2.882584 2.893982
v 1177.161133 1785.954834 82.427536
vn 1.546386 -2.569882 -3.175009
v 1177.161133 1786.016602 81.229126
vn 1.257522 -3.026927 2.886689
v 1176.217285 1785.483276 82.403244
vn 1.257518 -2.714231 -3.182597
v 1176.217285 1785.545044 81.204834
vn 0.955382 -3.140823 2.880705
v 1175.229980 1785.111084 82.384064
vn 0.955367 -2.828126 -3.188354
v 1175.229980 1785.172852 81.185661
vn 0.642994 -3.223088 2.876510
v 1174.209595 1784.842285 82.370224
vn 0.643007 -2.910422 -3.192640
v 1174.209595 1784.904053 81.171814
vn 0.323856 -3.272883 2.873938
v 1173.166992 1784.679688 82.361839
vn 0.323869 -2.960171 -3.195197
v 1173.166992 1784.741455 81.163429
vn 0.001270 -3.289607 2.873066
v 1172.113037 1784.625000 82.359024
vn 0.001272 -2.976925 -3.196050
v 1172.113037 1784.686768 81.160614
vn -0.321293 -3.273160 2.873950
v 1171.059082 1784.678833 82.361794
vn -0.321294 -2.960436 -3.195238
v 1171.059082 1784.740601 81.163383
vn -0.640406 -3.223651 2.876488
v 1170.016235 1784.840576 82.370132
vn -0.640423 -2.910958 -3.192672
v 1170.016235 1784.902344 81.171722
vn -0.952856 -3.141603 2.880665
v 1168.995605 1785.108521 82.383942
vn -0.952854 -2.828915 -3.188390
v 1168.995605 1785.170288 81.185524
vn -1.255354 -3.027858 2.886473
v 1168.008057 1785.479858 82.403069
vn -1.255347 -2.715178 -3.182477
v 1168.008057 1785.541626 81.204659
vn -1.544428 -2.883698 2.894024
v 1167.063843 1785.950806 82.427330
vn -1.544412 -2.571012 -3.175167
v 1167.063843 1786.012573 81.228920
vn -1.816886 -2.710788 2.902997
v 1166.173218 1786.516113 82.456451
vn -1.816877 -2.398067 -3.166314
v 1166.173218 1786.577881 81.258041
vn -2.070208 -2.510673 2.913153
v 1165.345459 1787.169800 82.490135
vn -2.070170 -2.198042 -3.155867
v 1165.345459 1787.231567 81.291725
vn -2.301604 -2.285723 2.925055
v 1164.589355 1787.905151 82.528015
vn -2.301525 -1.973054 -3.144103
v 1164.589355 1787.966797 81.329605
vn -2.508602 -2.038087 2.937728
v 1163.912964 1788.714111 82.569702
vn -2.508611 -1.725397 -3.131318
v 1163.912964 1788.775757 81.371292
vn -2.689185 -1.770305 2.951424
v 1163.323486 1789.588257 82.614738
vn -2.689183 -1.457569 -3.117449
v 1163.323486 1789.649902 81.416328
vn -2.841054 -1.485736 2.966300
v 1162.827271 1790.518311 82.662666
vn -2.841097 -1.172963 -3.103348
v 1162.827271 1790.580078 81.464256
vn -2.962805 -1.186985 2.981264
v 1162.429199 1791.494385 82.712959
vn -2.962814 -0.874334 -3.087507
v 1162.429199 1791.556152 81.514542
vn -3.053277 -0.877275 2.997557
v 1162.133911 1792.506226 82.765083
vn -3.053247 -0.564561 -3.071871
v 1162.133911 1792.567993 81.566666
vn -3.111268 -0.559893 3.013606
v 1161.944214 1793.542969 82.818504
vn -3.111284 -0.247207 -3.055207
v 1161.944214 1793.604736 81.620087
vn -3.136379 -0.238177 3.030439
v 1161.862427 1794.593750 82.872635
vn -3.136371 0.074506 -3.038857
v 1161.862427 1794.655396 81.674225
vn -3.128153 0.084248 3.046907
v 1161.889160 1795.647217 82.926918
vn -3.128160 0.396949 -3.022105
v 1161.889160 1795.708984 81.728508
vn -3.086827 0.404142 3.063540
v 1162.024292 1796.692505 82.980774
vn -3.086827 0.716855 -3.005763
v 1162.024292 1796.754272 81.782364
vn -3.012751 0.718115 3.079573
v 1162.266235 1797.718384 83.033630
vn -3.012763 1.030801 -2.989431
v 1162.266235 1797.780151 81.835220
vn -2.906816 1.022741 3.095473
v 1162.612549 1798.713867 83.084915
vn -2.906813 1.335434 -2.973929
v 1162.612549 1798.775635 81.886505
vn -2.770022 1.314923 3.110292
v 1163.059448 1799.668701 83.134109
vn -2.770016 1.627612 -2.958631
v 1163.059448 1799.730469 81.935699
vn -2.603720 1.591779 3.124599
v 1163.602295 1800.572388 83.180672
vn -2.603721 1.904477 -2.944397
v 1163.602295 1800.634155 81.982262
vn -2.409877 1.849955 3.137974
v 1164.235474 1801.415649 83.224121
vn -2.409856 2.162651 -2.931160
v 1164.235474 1801.477417 82.025703
vn -2.190607 2.086709 3.150239
v 1164.952026 1802.189331 83.263985
vn -2.190618 2.399431 -2.919016
v 1164.952026 1802.251099 82.065575
vn -1.948202 2.299661 3.161198
v 1165.744385 1802.885376 83.299843
vn -1.948197 2.612353 -2.908027
v 1165.744385 1802.947144 82.101433
vn -1.684923 2.486737 3.170680
v 1166.604248 1803.496460 83.331329
vn -1.684909 2.799429 -2.898224
v 1166.604248 1803.558228 82.132919
vn -1.403801 2.645780 3.179054
v 1167.522461 1804.015869 83.358093
vn -1.403798 2.958492 -2.890203
v 1167.522461 1804.077637 82.159683
vn -1.107970 2.775035 3.185668
v 1168.489380 1804.438354 83.379860
vn -1.107977 3.087734 -2.883493
v 1168.489380 1804.500122 82.181450
vn -0.800192 2.873302 3.190630
v 1169.494507 1804.759277 83.396393
vn -0.800189 3.185982 -2.878327
v 1169.494507 1804.821045 82.197983
vn -0.484117 2.939384 3.194273
v 1170.527466 1804.975220 83.407524
vn -0.484130 3.252107 -2.875158
v 1170.527466 1805.036987 82.209106
vn -0.162825 2.972713 3.195692
v 1171.577148 1805.084106 83.413124
vn -0.162829 3.285364 -2.873142
v 1171.577148 1805.145874 82.214714
vn 0.160280 2.972830 3.195937
v 1172.632446 1805.084473 83.413147
vn 0.160285 3.285539 -2.873372
v 1172.632446 1805.146240 82.214737
vn 0.481585 2.939793 3.194067
v 1173.682251 1804.976562 83.407585
vn 0.481582 3.252468 -2.874910
v 1173.682251 1805.038330 82.209175
vn 0.797842 2.873911 3.190800
v 1174.715332 1804.761353 83.396500
vn 0.797841 3.186626 -2.878432
v 1174.715332 1804.823120 82.198090
vn 1.105662 2.775919 3.185600
v 1175.720703 1804.441284 83.380005
vn 1.105663 3.088573 -2.883337
v 1175.720703 1804.503052 82.181595
vn 1.401599 2.646873 3.179213
v 1176.687866 1804.019531 83.358284
vn 1.401617 2.959613 -2.890247
v 1176.687866 1804.081299 82.159874
vn 1.682714 2.488137 3.170753
v 1177.606567 1803.500854 83.331558
vn 1.682697 2.800818 -2.898156
v 1177.606567 1803.562622 82.133141
vn 1.946068 2.301340 3.161354
v 1178.466919 1802.890503 83.300110
vn 1.946073 2.614062 -2.908008
v 1178.466919 1802.952271 82.101700
vn 2.188764 2.088511 3.150167
v 1179.259888 1802.195190 83.264282
vn 2.188750 2.401201 -2.918761
v 1179.259888 1802.256958 82.065872
vn 2.408402 1.851705 3.138044
v 1179.977051 1801.421997 83.224449
vn 2.408400 2.164402 -2.931049
v 1179.977051 1801.483765 82.026031
vn 2.602385 1.593786 3.124798
v 1180.610718 1800.579346 83.181030
vn 2.602386 1.906471 -2.944391
v 1180.610718 1800.641113 81.982620
vn 2.768693 1.317379 3.110584
v 1181.154419 1799.675903 83.134491
vn 2.768726 1.630069 -2.958656
v 1181.154419 1799.737671 81.936073
vn 2.905819 1.025197 3.095268
v 1181.602173 1798.721680 83.085312
vn 2.905823 1.337839 -2.973728
v 1181.602173 1798.783325 81.886902
vn 3.012031 0.720625 3.079808
v 1181.949219 1797.726440 83.034042
vn -0.210436 -2.949517 -3.463240
v 1172.378174 1798.908813 81.893372
vn -0.721926 -2.872236 -3.459619
v 1173.031372 1798.810303 81.888290
vn -1.213756 -2.712064 -3.451011
v 1173.659424 1798.605591 81.877747
vn 2.155289 -2.097688 -3.419605
v 1169.354980 1797.820435 81.837288
vn 1.752281 -2.421020 -3.435872
v 1169.870117 1798.233521 81.858574
vn 1.301537 -2.673573 -3.449064
v 1170.446167 1798.556396 81.875214
vn -1.672105 -2.473261 -3.438830
v 1174.245117 1798.300537 81.862022
vn -2.084848 -2.162534 -3.422638
v 1174.772583 1797.903320 81.841560
vn -2.441018 -1.787637 -3.403875
v 1175.227539 1797.424805 81.816902
vn 2.776116 -1.275412 -3.377251
v 1168.562256 1796.770508 81.783195
vn 2.499860 -1.712306 -3.399593
v 1168.915039 1797.328247 81.811935
vn 3.130462 0.217975 -3.300334
v 1168.109375 1794.862061 81.684868
vn 3.079961 0.731851 -3.273354
v 1168.174072 1794.205444 81.651039
vn 2.730295 1.700406 -3.223816
v 1168.620605 1792.968262 81.587303
vn 2.945333 1.230422 -3.248162
v 1168.345947 1793.568359 81.618217
vn 2.085007 2.502673 -3.182320
v 1169.445190 1791.943115 81.534477
vn 2.440861 2.128275 -3.201550
v 1168.990356 1792.421631 81.559128
vn -2.499996 2.052456 -3.205428
v 1175.302734 1792.518188 81.564110
vn -2.775971 1.616080 -3.227978
v 1175.655518 1793.075928 81.592842
vn -3.079909 -0.391919 -3.331110
v 1176.043701 1795.640991 81.724998
vn -3.130444 0.122055 -3.305448
v 1176.108521 1794.984375 81.691170
vn -3.095669 0.637668 -3.278328
v 1176.063965 1794.326050 81.657249
vn 1.672125 2.813598 -3.166338
v 1169.972656 1791.545898 81.514015
vn -2.155513 2.437826 -3.186005
v 1174.862793 1792.025879 81.538742
vn -1.752354 2.761225 -3.169065
v 1174.347778 1791.612793 81.517456
vn -2.976445 1.140057 -3.252623
v 1175.911621 1793.684082 81.624184
vn 0.814900 -2.848832 -3.457798
v 1171.067749 1798.780151 81.886742
vn 0.306279 -2.941566 -3.462797
v 1171.717529 1798.898682 81.892845
vn 2.976575 -0.799411 -3.352345
v 1168.306274 1796.162231 81.751862
vn 3.095670 -0.297401 -3.326510
v 1168.153931 1795.520264 81.718781
vn 0.722179 3.212555 -3.145847
v 1171.186401 1791.036133 81.487755
vn 1.213755 3.052358 -3.153905
v 1170.558350 1791.240845 81.498299
vn -2.945288 -0.890216 -3.357338
v 1175.871826 1796.277954 81.757820
vn -2.730544 -1.359835 -3.380918
v 1175.597168 1796.877930 81.788742
vn -1.301343 3.014009 -3.156022
v 1173.771606 1791.289917 81.500832
vn -0.814894 3.189096 -3.146905
v 1173.150024 1791.066162 81.489296
vn -0.306294 3.281878 -3.142347
v 1172.500244 1790.947632 81.483192
vn 0.210572 3.289795 -3.141924
v 1171.839722 1790.937500 81.482674
vn -3.079911 -0.732126 3.273155
v 1176.043701 1795.579224 82.923416
vn -3.130452 -0.218293 3.300488
v 1176.108521 1794.922607 82.889580
vn -2.976404 0.799725 3.352602
v 1175.911621 1793.622314 82.822594
vn -3.095668 0.297415 3.326523
v 1176.063965 1794.264282 82.855667
vn -2.499887 1.712228 3.399514
v 1175.302734 1792.456421 82.762520
vn -2.776002 1.275772 3.377027
v 1175.655518 1793.014160 82.791252
vn -2.155602 2.097506 3.419190
v 1174.862793 1791.964233 82.737152
vn -1.301300 2.673645 3.449171
v 1173.771606 1791.228149 82.699242
vn -1.752437 2.420857 3.436216
v 1174.347778 1791.551025 82.715866
vn 3.130470 -0.122349 3.305262
v 1168.109375 1794.800293 82.883278
vn 3.079957 0.391591 3.331257
v 1168.174072 1794.143677 82.849449
vn 2.945285 0.890179 3.357493
v 1168.345947 1793.506592 82.816628
vn -2.730429 -1.700186 3.223553
v 1175.597168 1796.816284 82.987144
vn -2.441009 -2.128084 3.202011
v 1175.227539 1797.363037 83.015312
vn -2.084844 -2.502822 3.182179
v 1174.772583 1797.841553 83.039970
vn -2.945301 -1.230542 3.248267
v 1175.871826 1796.216309 82.956230
vn 1.213714 2.712064 3.451010
v 1170.558350 1791.179077 82.696709
vn 0.722155 2.872219 3.459464
v 1171.186401 1790.974365 82.686165
vn 0.210419 2.949416 3.463577
v 1171.839722 1790.875732 82.681084
vn 2.084979 2.162361 3.422763
v 1169.445190 1791.881348 82.732887
vn 1.672105 2.473300 3.438833
v 1169.972656 1791.484131 82.712418
vn 2.440958 1.787880 3.403436
v 1168.990356 1792.359863 82.757538
vn 2.730343 1.360026 3.381168
v 1168.620605 1792.906616 82.785713
vn 2.776166 -1.615751 3.228236
v 1168.562256 1796.708740 82.981598
vn 2.976547 -1.139664 3.252403
v 1168.306274 1796.100464 82.950272
vn 3.095685 -0.637722 3.278313
v 1168.153931 1795.458496 82.917191
vn 1.752419 -2.761235 3.168705
v 1169.870117 1798.171753 83.056984
vn 2.155326 -2.438024 3.185828
v 1169.354980 1797.758667 83.035698
vn 2.499832 -2.052602 3.205544
v 1168.915039 1797.266479 83.010345
vn 0.814685 -3.189170 3.147281
v 1171.067749 1798.718506 83.085152
vn 1.301664 -3.013813 3.156575
v 1170.446167 1798.494751 83.073624
vn -0.721924 -3.212605 3.145998
v 1173.031372 1798.748535 83.086700
vn -0.210411 -3.289807 3.141657
v 1172.378174 1798.847046 83.091782
vn 0.306069 -3.281894 3.141961
v 1171.717529 1798.836914 83.091263
vn -0.306279 2.941687 3.462336
v 1172.500244 1790.885986 82.681595
vn -0.814750 2.848812 3.458180
v 1173.150024 1791.004395 82.687706
vn -1.672114 -2.813617 3.166337
v 1174.245117 1798.238770 83.060432
vn -1.213737 -3.052353 3.153906
v 1173.659424 1798.543823 83.076157
# 198 vertices, 0 vertices normals

f 1//1 2//2 3//3
f 3//3 2//2 4//4
f 3//3 4//4 5//5
f 5//5 4//4 6//6
f 5//5 6//6 7//7
f 7//7 6//6 8//8
f 7//7 8//8 9//9
f 9//9 8//8 10//10
f 9//9 10//10 11//11
f 11//11 10//10 12//12
f 11//11 12//12 13//13
f 13//13 12//12 14//14
f 13//13 14//14 15//15
f 15//15 14//14 16//16
f 15//15 16//16 17//17
f 17//17 16//16 18//18
f 17//17 18//18 19//19
f 19//19 18//18 20//20
f 19//19 20//20 21//21
f 21//21 20//20 22//22
f 21//21 22//22 23//23
f 23//23 22//22 24//24
f 23//23 24//24 25//25
f 25//25 24//24 26//26
f 25//25 26//26 27//27
f 27//27 26//26 28//28
f 27//27 28//28 29//29
f 29//29 28//28 30//30
f 29//29 30//30 31//31
f 31//31 30//30 32//32
f 31//31 32//32 33//33
f 33//33 32//32 34//34
f 33//33 34//34 35//35
f 35//35 34//34 36//36
f 35//35 36//36 37//37
f 37//37 36//36 38//38
f 37//37 38//38 39//39
f 39//39 38//38 40//40
f 39//39 40//40 41//41
f 41//41 40//40 42//42
f 41//41 42//42 43//43
f 43//43 42//42 44//44
f 43//43 44//44 45//45
f 45//45 44//44 46//46
f 45//45 46//46 47//47
f 47//47 46//46 48//48
f 47//47 48//48 49//49
f 49//49 48//48 50//50
f 49//49 50//50 51//51
f 51//51 50//50 52//52
f 51//51 52//52 53//53
f 53//53 52//52 54//54
f 53//53 54//54 55//55
f 55//55 54//54 56//56
f 55//55 56//56 57//57
f 57//57 56//56 58//58
f 57//57 58//58 59//59
f 59//59 58//58 60//60
f 59//59 60//60 61//61
f 61//61 60//60 62//62
f 61//61 62//62 63//63
f 63//63 62//62 64//64
f 63//63 64//64 65//65
f 65//65 64//64 66//66
f 65//65 66//66 67//67
f 67//67 66//66 68//68
f 67//67 68//68 69//69
f 69//69 68//68 70//70
f 69//69 70//70 71//71
f 71//71 70//70 72//72
f 71//71 72//72 73//73
f 73//73 72//72 74//74
f 73//73 74//74 75//75
f 75//75 74//74 76//76
f 75//75 76//76 77//77
f 77//77 76//76 78//78
f 77//77 78//78 79//79
f 79//79 78//78 80//80
f 79//79 80//80 81//81
f 81//81 80//80 82//82
f 81//81 82//82 83//83
f 83//83 82//82 84//84
f 83//83 84//84 85//85
f 85//85 84//84 86//86
f 85//85 86//86 87//87
f 87//87 86//86 88//88
f 87//87 88//88 89//89
f 89//89 88//88 90//90
f 89//89 90//90 91//91
f 91//91 90//90 92//92
f 91//91 92//92 93//93
f 93//93 92//92 94//94
f 93//93 94//94 95//95
f 95//95 94//94 96//96
f 95//95 96//96 97//97
f 97//97 96//96 98//98
f 97//97 98//98 99//99
f 99//99 98//98 100//100
f 99//99 100//100 101//101
f 101//101 100//100 102//102
f 101//101 102//102 103//103
f 103//103 102//102 104//104
f 103//103 104//104 105//105
f 105//105 104//104 106//106
f 105//105 106//106 107//107
f 107//107 106//106 108//108
f 107//107 108//108 109//109
f 109//109 108//108 110//110
f 109//109 110//110 111//111
f 111//111 110//110 112//112
f 111//111 112//112 113//113
f 113//113 112//112 114//114
f 113//113 114//114 115//115
f 115//115 114//114 116//116
f 115//115 116//116 117//117
f 117//117 116//116 118//118
f 117//117 118//118 119//119
f 119//119 118//118 120//120
f 119//119 120//120 121//121
f 121//121 120//120 122//122
f 121//121 122//122 1//1
f 1//1 122//122 2//2
f 123//123 101//101 124//124
f 124//124 101//101 103//103
f 124//124 103//103 125//125
f 126//126 85//85 127//127
f 127//127 85//85 87//87
f 127//127 87//87 128//128
f 129//129 111//111 130//130
f 130//130 111//111 113//113
f 130//130 113//113 131//131
f 132//132 79//79 133//133
f 133//133 79//79 81//81
f 133//133 81//81 126//126
f 126//126 81//81 83//83
f 126//126 83//83 85//85
f 134//134 135//135 65//65
f 136//136 59//59 137//137
f 137//137 59//59 61//61
f 137//137 61//61 135//135
f 135//135 61//61 63//63
f 135//135 63//63 65//65
f 138//138 53//53 139//139
f 139//139 53//53 55//55
f 139//139 55//55 136//136
f 136//136 55//55 57//57
f 136//136 57//57 59//59
f 140//140 141//141 17//17
f 142//142 5//5 143//143
f 143//143 5//5 7//7
f 143//143 7//7 144//144
f 145//145 49//49 138//138
f 138//138 49//49 51//51
f 138//138 51//51 53//53
f 17//17 19//19 140//140
f 140//140 19//19 21//21
f 140//140 21//21 146//146
f 146//146 21//21 23//23
f 146//146 23//23 147//147
f 7//7 9//9 144//144
f 144//144 9//9 11//11
f 144//144 11//11 148//148
f 148//148 11//11 13//13
f 148//148 13//13 141//141
f 141//141 13//13 15//15
f 141//141 15//15 17//17
f 103//103 105//105 125//125
f 125//125 105//105 107//107
f 125//125 107//107 129//129
f 129//129 107//107 109//109
f 129//129 109//109 111//111
f 149//149 95//95 150//150
f 150//150 95//95 97//97
f 150//150 97//97 123//123
f 123//123 97//97 99//99
f 123//123 99//99 101//101
f 87//87 89//89 128//128
f 128//128 89//89 91//91
f 128//128 91//91 149//149
f 149//149 91//91 93//93
f 149//149 93//93 95//95
f 151//151 75//75 132//132
f 132//132 75//75 77//77
f 132//132 77//77 79//79
f 65//65 67//67 134//134
f 134//134 67//67 69//69
f 134//134 69//69 152//152
f 152//152 69//69 71//71
f 152//152 71//71 151//151
f 151//151 71//71 73//73
f 151//151 73//73 75//75
f 153//153 43//43 154//154
f 154//154 43//43 45//45
f 154//154 45//45 145//145
f 145//145 45//45 47//47
f 145//145 47//47 49//49
f 155//155 1//1 142//142
f 142//142 1//1 3//3
f 142//142 3//3 5//5
f 113//113 115//115 131//131
f 131//131 115//115 117//117
f 131//131 117//117 156//156
f 156//156 117//117 119//119
f 156//156 119//119 155//155
f 155//155 119//119 121//121
f 155//155 121//121 1//1
f 23//23 25//25 147//147
f 147//147 25//25 27//27
f 147//147 27//27 157//157
f 157//157 27//27 29//29
f 157//157 29//29 158//158
f 159//159 37//37 160//160
f 160//160 37//37 39//39
f 160//160 39//39 153//153
f 153//153 39//39 41//41
f 153//153 41//41 43//43
f 29//29 31//31 158//158
f 158//158 31//31 33//33
f 158//158 33//33 159//159
f 159//159 33//33 35//35
f 159//159 35//35 37//37
f 161//161 162//162 4//4
f 163//163 10//10 164//164
f 164//164 10//10 8//8
f 164//164 8//8 162//162
f 162//162 8//8 6//6
f 162//162 6//6 4//4
f 165//165 16//16 166//166
f 166//166 16//16 14//14
f 166//166 14//14 163//163
f 163//163 14//14 12//12
f 163//163 12//12 10//10
f 167//167 20//20 165//165
f 165//165 20//20 18//18
f 165//165 18//18 16//16
f 168//168 26//26 169//169
f 169//169 26//26 24//24
f 169//169 24//24 167//167
f 167//167 24//24 22//22
f 167//167 22//22 20//20
f 170//170 64//64 171//171
f 171//171 64//64 62//62
f 171//171 62//62 172//172
f 173//173 116//116 174//174
f 174//174 116//116 114//114
f 174//174 114//114 175//175
f 4//4 2//2 161//161
f 161//161 2//2 122//122
f 161//161 122//122 176//176
f 176//176 122//122 120//120
f 176//176 120//120 173//173
f 173//173 120//120 118//118
f 173//173 118//118 116//116
f 177//177 42//42 178//178
f 178//178 42//42 40//40
f 178//178 40//40 179//179
f 180//180 48//48 181//181
f 181//181 48//48 46//46
f 181//181 46//46 177//177
f 177//177 46//46 44//44
f 177//177 44//44 42//42
f 182//182 52//52 180//180
f 180//180 52//52 50//50
f 180//180 50//50 48//48
f 62//62 60//60 172//172
f 172//172 60//60 58//58
f 172//172 58//58 183//183
f 183//183 58//58 56//56
f 183//183 56//56 182//182
f 182//182 56//56 54//54
f 182//182 54//54 52//52
f 184//184 74//74 185//185
f 185//185 74//74 72//72
f 185//185 72//72 186//186
f 187//187 84//84 188//188
f 188//188 84//84 82//82
f 188//188 82//82 189//189
f 190//190 90//90 191//191
f 191//191 90//90 88//88
f 191//191 88//88 187//187
f 187//187 88//88 86//86
f 187//187 86//86 84//84
f 192//192 100//100 193//193
f 193//193 100//100 98//98
f 193//193 98//98 194//194
f 195//195 32//32 196//196
f 196//196 32//32 30//30
f 196//196 30//30 168//168
f 168//168 30//30 28//28
f 168//168 28//28 26//26
f 72//72 70//70 186//186
f 186//186 70//70 68//68
f 186//186 68//68 170//170
f 170//170 68//68 66//66
f 170//170 66//66 64//64
f 82//82 80//80 189//189
f 189//189 80//80 78//78
f 189//189 78//78 184//184
f 184//184 78//78 76//76
f 184//184 76//76 74//74
f 197//197 106//106 198//198
f 198//198 106//106 104//104
f 198//198 104//104 192//192
f 192//192 104//104 102//102
f 192//192 102//102 100//100
f 40//40 38//38 179//179
f 179//179 38//38 36//36
f 179//179 36//36 195//195
f 195//195 36//36 34//34
f 195//195 34//34 32//32
f 98//98 96//96 194//194
f 194//194 96//96 94//94
f 194//194 94//94 190//190
f 190//190 94//94 92//92
f 190//190 92//92 90//90
f 114//114 112//112 175//175
f 175//175 112//112 110//110
f 175//175 110//110 197//197
f 197//197 110//110 108//108
f 197//197 108//108 106//106
f 143//143 161//161 142//142
f 142//142 161//161 176//176
f 142//142 176//176 155//155
f 155//155 176//176 173//173
f 155//155 173//173 156//156
f 156//156 173//173 174//174
f 156//156 174//174 131//131
f 131//131 174//174 175//175
f 131//131 175//175 130//130
f 130//130 175//175 197//197
f 130//130 197//197 129//129
f 129//129 197//197 198//198
f 129//129 198//198 125//125
f 125//125 198//198 192//192
f 125//125 192//192 124//124
f 124//124 192//192 193//193
f 124//124 193//193 123//123
f 123//123 193//193 194//194
f 123//123 194//194 150//150
f 150//150 194//194 190//190
f 150//150 190//190 149//149
f 149//149 190//190 191//191
f 149//149 191//191 128//128
f 128//128 191//191 187//187
f 128//128 187//187 127//127
f 127//127 187//187 188//188
f 127//127 188//188 126//126
f 126//126 188//188 189//189
f 126//126 189//189 133//133
f 133//133 189//189 184//184
f 133//133 184//184 132//132
f 132//132 184//184 185//185
f 132//132 185//185 151//151
f 151//151 185//185 186//186
f 151//151 186//186 152//152
f 152//152 186//186 170//170
f 152//152 170//170 134//134
f 134//134 170//170 171//171
f 134//134 171//171 135//135
f 135//135 171//171 172//172
f 135//135 172//172 137//137
f 137//137 172//172 183//183
f 137//137 183//183 136//136
f 136//136 183//183 182//182
f 136//136 182//182 139//139
f 139//139 182//182 180//180
f 139//139 180//180 138//138
f 138//138 180//180 181//181
f 138//138 181//181 145//145
f 145//145 181//181 177//177
f 145//145 177//177 154//154
f 154//154 177//177 178//178
f 154//154 178//178 153//153
f 153//153 178//178 179//179
f 153//153 179//179 160//160
f 160//160 179//179 195//195
f 160//160 195//195 159//159
f 159//159 195//195 196//196
f 159//159 196//196 158//158
f 158//158 196//196 168//168
f 158//158 168//168 157//157
f 157//157 168//168 169//169
f 157//157 169//169 147//147
f 147//147 169//169 167//167
f 147//147 167//167 146//146
f 146//146 167//167 165//165
f 146//146 165//165 140//140
f 140//140 165//165 166//166
f 140//140 166//166 141//141
f 141//141 166//166 163//163
f 141//141 163//163 148//148
f 148//148 163//163 164//164
f 148//148 164//164 144//144
f 144//144 164//164 162//162
f 144//144 162//162 143//143
f 143//143 162//162 161//161
# 396 faces, 0 coords texture

# End of File
